# xmcd
#
# Track frame offsets: 
#        150
#        13293
#        25319
#        38380
#        50316
#        62904
#        76468
#        87612
#        99687
#        111301
#        123277
#        135703
#        149027
#        161088
#        175010
#        188467
#        203438
#        217605
#        227599
#        238283
#        250491
#        262022
#        274163
#        287035
#        299528
#        311880
#        322960
#        334919
#
# Disc length: 4623 seconds
#
# Revision: 1
# Processed by: cddbd v1.5.2PL0 Copyright (c) Steve Scherf et al.
# Submitted via: ExactAudioCopy v1.1
#
DISCID=a7120d1c
DTITLE=Various Artist - The Complete Motown Singles Volume 7 [CD37
DTITLE=)
DYEAR=2007
DGENRE=R&B
TTITLE0=Gladys Knight and The Pips - I Heard It Through The Grapevine (1
TTITLE0=st pressing mix) (mono)
TTITLE1=Gladys Knight and The Pips - It's Time To Go Now (mono)
TTITLE2=Gladys Knight and The Pips - I Heard It Through The Grapevine (2
TTITLE2=nd pressing mix) (mono)
TTITLE3=Edwin Starr - I Want My Baby Back (mono)
TTITLE4=Edwin Starr - Gonna Keep On Tryin' Till I Win Your Love (mono)
TTITLE5=Tammi Terrell - What A Good Man He Is (mono)
TTITLE6=Tammi Terrell - There Are Things (mono)
TTITLE7=Smokey Robinson and The Miracles - I Second That Emotion (mono)
TTITLE8=Smokey Robinson and The Miracles - You Must Be Love (mono)
TTITLE9=Diana Ross and The Supremes - In And Out Of Love (mono)
TTITLE10=Diana Ross and The Supremes - I Guess I'll Always Love You (mon
TTITLE10=o)
TTITLE11=Martha Reeves and The Vandellas - Honey Chile (mono)
TTITLE12=Martha Reeves and The Vandellas - Show Me The Way (mono)
TTITLE13=Jr. Walker and The All Stars - Come See About Me (mono)
TTITLE14=Jr. Walker and The All Stars - Sweet Soul (mono)
TTITLE15=The Ones - You Haven't Seen My Love (mono)
TTITLE16=The Ones - Happy Day (mono)
TTITLE17=Marvin Gaye and Tammi Terrell - Two Can Have A Party (mono)
TTITLE18=Marvin Gaye and Tammi Terrell - If This World Were Mine (mono)
TTITLE19=Marvin Gaye and Tammi Terrell - If I Could Build My Whole World
TTITLE19=Around You (mono)
TTITLE20=The Marvelettes - My Baby Must Be A Magician (mono)
TTITLE21=The Marvelettes - I Need Someone (mono)
TTITLE22=The Temptations - I Wish It Would Rain (mono)
TTITLE23=The Temptations - I Truly, Truly Believe (1st pressing - Eddi
TTITLE23=e Kendricks vocal) (mono)
TTITLE24=The Temptations - I Truly, Truly Believe (2nd pressing - Melv
TTITLE24=in Franklin vocal) (mono)
TTITLE25=Marvin Gaye - You (mono)
TTITLE26=Marvin Gaye - At Last (I Found A Love) (mono)
TTITLE27=Marvin Gaye - Change What You Can (mono)
EXTD=
EXTT0=
EXTT1=
EXTT2=
EXTT3=
EXTT4=
EXTT5=
EXTT6=
EXTT7=
EXTT8=
EXTT9=
EXTT10=
EXTT11=
EXTT12=
EXTT13=
EXTT14=
EXTT15=
EXTT16=
EXTT17=
EXTT18=
EXTT19=
EXTT20=
EXTT21=
EXTT22=
EXTT23=
EXTT24=
EXTT25=
EXTT26=
EXTT27=
PLAYORDER=
